<svg width="24" height="24" viewBox="0 0 512 512" fill="none" xmlns="http://www.w3.org/2000/svg">
<path d="M321.92 323.27V136.6C321.92 125.902 316.033 119.998 305.362 119.998H268.929C258.257 119.998 252.368 125.902 252.368 136.6V225.251C252.368 227.748 276.364 239.34 276.991 241.792C295.273 313.402 280.963 370.712 263.632 373.392C291.969 374.797 295.087 388.456 273.98 379.123C277.209 340.914 289.808 340.989 326.029 377.717C326.339 378.034 333.456 392.999 333.899 392.999H419.444C430.116 392.999 436.002 387.099 436.002 376.399V339.875C436.002 329.177 430.116 323.273 419.444 323.273L321.92 323.27Z" fill="#000"/>
<path d="M170.68 120L74.999 393H149.337L165.529 345.778H246.489L262.315 393H336.283L240.969 120H170.68ZM182.456 285.28L205.639 209.651L231.032 285.28H182.456Z" fill="#2a2a2a"/>
</svg>
