<svg width="156.8" height="35" viewBox="0 0 1120 250" fill="none" xmlns="http://www.w3.org/2000/svg">
<path fill-rule="evenodd" clip-rule="evenodd" d="M20 0C8.9543 0 0 8.9543 0 20V230C0 241.046 8.9543 250 20 250H230C241.046 250 250 241.046 250 230V20C250 8.9543 241.046 0 230 0H20ZM99.5 185.65C100.25 180.85 100.4 173.35 100.4 167.8V80.65C100.4 76.3 100.1 69.7 99.35 64.9H114.05C113.45 69.55 113 76 113 80.65C113 86.9193 113.011 95.6316 113.027 105.152C132.792 111.08 161.147 121.963 177.05 129.7L171.8 142.45C155.625 133.795 129.651 123.797 113.051 118.425C113.069 127.736 113.089 137.107 113.107 145.184C113.131 156.513 113.15 165.296 113.15 167.8C113.15 172.6 113.45 180.7 114.05 185.65H99.5Z" fill="#EC7C26"/>
<path fill-rule="evenodd" clip-rule="evenodd" d="M310 0C298.954 0 290 8.9543 290 20V230C290 241.046 298.954 250 310 250H520C531.046 250 540 241.046 540 230V20C540 8.9543 531.046 0 520 0H310ZM426.4 184.45L418.45 177.85C419.05 175.6 419.5 172.45 419.5 169.45V79.6C419.5 75.6928 419.148 72.4903 418.926 70.4759C418.824 69.5516 418.75 68.8774 418.75 68.5H432.55C432.541 68.571 432.531 68.6531 432.519 68.7459C432.331 70.2199 431.8 74.3875 431.8 79.75V166.15C445.75 159.85 464.2 146.2 475.6 129.25L482.8 139.6C469.75 157.15 449.05 172.45 431.65 181.15C429.859 181.993 428.586 182.91 427.571 183.641C427.141 183.95 426.757 184.227 426.4 184.45ZM361.15 184.75L349.75 177.25C362.5 168.25 371.35 154.9 375.85 140.35C380.35 126.55 380.35 96.7 380.35 79.9C380.35 75.55 380.05 72.25 379.3 69.1H393.1C393.072 69.4111 393.027 69.8289 392.974 70.3312C392.745 72.4929 392.35 76.2202 392.35 79.75C392.35 96.4 391.9 128.65 387.85 143.65C383.35 159.7 373.75 174.25 361.15 184.75Z" fill="#E63244"/>
<path fill-rule="evenodd" clip-rule="evenodd" d="M600 0C588.954 0 580 8.9543 580 20V230C580 241.046 588.954 250 600 250H810C821.046 250 830 241.046 830 230V20C830 8.9543 821.046 0 810 0H600ZM662.1 82.6V70.15C666.45 70.6 670.8 70.9 675.75 70.9H736.5C740.7 70.9 746.1 70.6 750.45 70.15V82.6C745.95 82.3 740.7 82 736.5 82H675.9C670.95 82 666 82.3 662.1 82.6ZM644.25 120.25V107.8C648.3 108.25 652.65 108.4 657.3 108.4H755.4C758.55 108.4 763.5 108.25 767.25 107.8V120.1C763.8 119.95 759.15 119.8 755.4 119.8H714.814C714.332 136.03 711.772 149.659 705.75 160.9C700.35 170.95 688.95 181.6 676.35 188.2L665.25 180.1C676.8 175.15 687.6 166.6 693.45 157C700.052 146.569 701.772 133.931 702.192 119.8H657.3C652.8 119.8 648.3 119.95 644.25 120.25Z" fill="#F3DA0B"/>
<path fill-rule="evenodd" clip-rule="evenodd" d="M890 0C878.954 0 870 8.9543 870 20V230C870 241.046 878.954 250 890 250H1100C1111.05 250 1120 241.046 1120 230V20C1120 8.9543 1111.05 0 1100 0H890ZM945.35 80.35L954.05 71.2C964.55 78.25 983.9 93.85 992.15 102.1L982.85 111.7C975.2 103.9 956.6 87.7 945.35 80.35ZM948.95 184L941.15 171.7C967.25 167.8 986.75 158.65 1001 149.8C1024.25 135.25 1042.4 113.05 1051.1 94.45L1058.3 107.35C1048.1 125.95 1030.7 146.35 1008.05 160.6C992.9 170.05 974 179.35 948.95 184Z" fill="#497E76"/>
</svg>
