<svg width="445" height="100" viewBox="0 0 445 100" fill="none" xmlns="http://www.w3.org/2000/svg">
<g clip-path="url(#clip0_816_66)">
<path fill-rule="evenodd" clip-rule="evenodd" d="M350 0H440C442.761 0 445 2.23858 445 5V95C445 97.7614 442.761 100 440 100H350C347.239 100 345 97.7614 345 95V5C345 2.23858 347.239 0 350 0ZM373.816 31.056L377.528 27.152C382.008 30.16 390.264 36.816 393.784 40.336L389.816 44.432C386.552 41.104 378.616 34.192 373.816 31.056ZM375.352 75.28L372.024 70.032C383.16 68.368 391.48 64.464 397.56 60.688C407.48 54.48 415.224 45.008 418.936 37.072L422.008 42.576C417.656 50.512 410.232 59.216 400.568 65.296C394.104 69.328 386.04 73.296 375.352 75.28Z" fill="#2A2A2A"/>
<path fill-rule="evenodd" clip-rule="evenodd" d="M235 0H325C327.761 0 330 2.23858 330 5V95C330 97.7614 327.761 100 325 100H235C232.239 100 230 97.7614 230 95V5C230 2.23858 232.239 0 235 0ZM261.696 32.016V26.704C263.552 26.896 265.408 27.024 267.52 27.024H293.44C295.232 27.024 297.536 26.896 299.392 26.704V32.016C297.472 31.888 295.232 31.76 293.44 31.76H267.584C265.472 31.76 263.36 31.888 261.696 32.016ZM254.08 48.08V42.768C255.808 42.96 257.664 43.024 259.648 43.024H301.504C302.848 43.024 304.96 42.96 306.56 42.768V48.016C305.088 47.952 303.104 47.888 301.504 47.888H284.187C283.981 54.8127 282.889 60.6278 280.32 65.424C278.016 69.712 273.152 74.256 267.776 77.072L263.04 73.616C267.968 71.504 272.576 67.856 275.072 63.76C277.889 59.3096 278.623 53.9171 278.802 47.888H259.648C257.728 47.888 255.808 47.952 254.08 48.08Z" fill="#2A2A2A"/>
<path fill-rule="evenodd" clip-rule="evenodd" d="M120 0H210C212.761 0 215 2.23858 215 5V95C215 97.7614 212.761 100 210 100H120C117.239 100 115 97.7614 115 95V5C115 2.23858 117.239 0 120 0ZM169.864 75.472L166.472 72.656C166.728 71.696 166.92 70.352 166.92 69.072V30.736C166.92 29.0689 166.77 27.7025 166.675 26.8431C166.632 26.4487 166.6 26.161 166.6 26H172.488C172.484 26.0304 172.48 26.0655 172.475 26.1052C172.395 26.7344 172.168 28.5124 172.168 30.8V67.664C178.12 64.976 185.992 59.152 190.856 51.92L193.928 56.336C188.36 63.824 179.528 70.352 172.104 74.064C171.34 74.4236 170.797 74.8149 170.364 75.1268C170.18 75.2589 170.016 75.3768 169.864 75.472ZM142.024 75.6L137.16 72.4C142.6 68.56 146.376 62.864 148.296 56.656C150.216 50.768 150.216 38.032 150.216 30.864C150.216 29.008 150.088 27.6 149.768 26.256H155.656C155.644 26.3888 155.625 26.567 155.602 26.7814C155.505 27.7037 155.336 29.294 155.336 30.8C155.336 37.904 155.144 51.664 153.416 58.064C151.496 64.912 147.4 71.12 142.024 75.6Z" fill="#2A2A2A"/>
<path fill-rule="evenodd" clip-rule="evenodd" d="M5 0H95C97.7614 0 100 2.23858 100 5V95C100 97.7614 97.7614 100 95 100H5C2.23858 100 0 97.7614 0 95V5C0 2.23858 2.23858 0 5 0ZM39.12 75.984C39.44 73.936 39.504 70.736 39.504 68.368V31.184C39.504 29.328 39.376 26.512 39.056 24.464H45.328C45.072 26.448 44.88 29.2 44.88 31.184C44.88 33.8589 44.8847 37.5761 44.8915 41.6381C53.3246 44.1673 65.4228 48.8111 72.208 52.112L69.968 57.552C63.0665 53.8591 51.9845 49.5935 44.9018 47.3012C44.9095 51.274 44.9181 55.2723 44.9255 58.7185C44.936 63.5521 44.944 67.2998 44.944 68.368C44.944 70.416 45.072 73.872 45.328 75.984H39.12Z" fill="#2A2A2A"/>
</g>
<defs>
<clipPath id="clip0_816_66">
<rect width="445" height="100" fill="white"/>
</clipPath>
</defs>
</svg>
